<svg height="496pt" viewBox="0 0 496 496" width="496pt" xmlns="http://www.w3.org/2000/svg"><path d="m416 424v64h-56c-8.800781 0-16.800781-3.601562-22.640625-9.359375-5.757813-5.839844-9.359375-13.839844-9.359375-22.640625 0-17.679688 14.320312-32 32-32zm0 0" fill="#838f9b"/><path d="m360 424c-17.679688 0-32 14.320312-32 32v-96h128c17.679688 0 32 14.320312 32 32 0 8.800781-3.601562 16.800781-9.359375 22.640625-5.839844 5.757813-13.839844 9.359375-22.640625 9.359375zm0 0" fill="#ffeaa7"/><path d="m40 296c-17.679688 0-32 14.320312-32 32v-256c0-17.679688 14.320312-32 32-32h32v256zm0 0" fill="#ffeaa7"/><path d="m456 104h-384v192h-32c-17.679688 0-32 14.320312-32 32 0 8.800781 3.601562 16.800781 9.359375 22.640625 5.839844 5.757813 13.839844 9.359375 22.640625 9.359375h416c17.679688 0 32 14.320312 32 32v-256c0-17.679688-14.320312-32-32-32zm0 0" fill="#e6e9ed"/><path d="m448 112v1.921875c0 19.679687-5.601562 38.871094-16.078125 55.519531l-75.683594 119.757813c-2.636719 4.242187-7.277343 6.800781-12.238281 6.800781s-9.601562-2.558594-12.238281-6.800781l-75.683594-119.757813c-10.476563-16.640625-16.078125-35.839844-16.078125-55.519531v-1.921875c0-2.71875.078125-5.359375.320312-8 1.917969-25.519531 13.121094-48.480469 30.160157-65.519531 18.800781-18.800781 44.800781-30.480469 73.519531-30.480469 54.71875 0 99.601562 42.320312 103.679688 96 .242187 2.640625.320312 5.28125.320312 8zm0 0" fill="#ff826e"/><path d="m152 160c0 13.253906-10.746094 24-24 24s-24-10.746094-24-24 10.746094-24 24-24 24 10.746094 24 24zm0 0" fill="#ff826e"/><path d="m416 112c0 39.765625-32.234375 72-72 72s-72-32.234375-72-72 32.234375-72 72-72 72 32.234375 72 72zm0 0" fill="#ffeaa7"/><path d="m344 192c44.113281 0 80-35.886719 80-80s-35.886719-80-80-80-80 35.886719-80 80 35.886719 80 80 80zm0-144c35.289062 0 64 28.710938 64 64s-28.710938 64-64 64-64-28.710938-64-64 28.710938-64 64-64zm0 0"/><path d="m344 160v-16c-17.648438 0-32-14.351562-32-32h-16c0 26.472656 21.527344 48 48 48zm0 0"/><path d="m456 96h-1.28125c-7.796875-54.183594-54.40625-96-110.71875-96s-102.921875 41.816406-110.71875 96h-153.28125v-64h-40c-22.054688 0-40 17.945312-40 40v256c0 22.054688 17.945312 40 40 40h280v88c0 22.054688 17.945312 40 40 40h64v-64h32c22.054688 0 40-17.945312 40-40v-256c0-22.054688-17.945312-40-40-40zm-208 16c0-52.9375 43.0625-96 96-96s96 43.0625 96 96v1.902344c0 18.167968-5.128906 35.898437-14.832031 51.265625l-75.65625 119.792969c-2.40625 3.816406-8.625 3.816406-11.015625 0l-75.65625-119.792969c-9.710938-15.359375-14.839844-33.089844-14.839844-51.265625zm-232-40c0-13.230469 10.769531-24 24-24h24v240h-24c-9 0-17.3125 2.984375-24 8.015625zm0 256c0-13.230469 10.769531-24 24-24h40v-192h152v1.902344c0 21.203125 5.984375 41.882812 17.304688 59.816406l72.183593 114.28125h-9.488281v16h32c7.769531 0 14.886719-3.921875 19.039062-10.496094l75.65625-119.792968c11.320313-17.917969 17.304688-38.597657 17.304688-59.808594v-1.902344c13.230469 0 24 10.769531 24 24v224.207031c-6.703125-5.078125-14.960938-8.207031-24-8.207031h-416c-13.230469 0-24-10.769531-24-24zm392 152h-48c-13.230469 0-24-10.769531-24-24s10.769531-24 24-24h48zm48-64h-96c-9.039062 0-17.296875 3.128906-24 8.207031v-56.207031h120c13.230469 0 24 10.769531 24 24s-10.769531 24-24 24zm0 0"/><path d="m128 128c-17.648438 0-32 14.351562-32 32 0 14.871094 10.238281 27.289062 24 30.863281v49.136719h16v-49.136719c13.761719-3.574219 24-15.992187 24-30.863281 0-17.648438-14.351562-32-32-32zm0 48c-8.824219 0-16-7.175781-16-16s7.175781-16 16-16 16 7.175781 16 16-7.175781 16-16 16zm0 0"/><path d="m158.640625 318.558594 6.664063 14.546875c6.496093-2.976563 11.871093-8.113281 15.144531-14.457031l-14.21875-7.328126c-1.644531 3.175782-4.335938 5.75-7.589844 7.238282zm0 0"/><path d="m120 288h16v16h-16zm0 0"/><path d="m126.847656 323.800781c4.425782 5.613281 10.679688 9.632813 17.609375 11.3125l3.773438-15.546875c-3.460938-.839844-6.589844-2.855468-8.816407-5.671875zm0 0"/><path d="m168 283.433594h16v16h-16zm0 0"/><path d="m120 256h16v16h-16zm0 0"/><path d="m233.144531 277.945312-14.847656 5.949219c2.65625 6.625 7.519531 12.242188 13.710937 15.824219l8-13.855469c-3.105468-1.792969-5.535156-4.597656-6.863281-7.917969zm0 0"/><path d="m216 249.144531h16v16h-16zm0 0"/><path d="m251.433594 288h16v16h-16zm0 0"/><path d="m168 251.433594h16v16h-16zm0 0"/><path d="m283.433594 288h16v16h-16zm0 0"/><path d="m168 232v3.433594h16v-3.433594c0-2.824219.734375-5.574219 2.136719-7.984375l-13.839844-8.03125c-2.808594 4.847656-4.296875 10.382813-4.296875 16.015625zm0 0"/><path d="m216 233.144531h16v-1.136719c0-6.710937-2.046875-13.136718-5.9375-18.574218l-13.023438 9.292968c1.945313 2.714844 2.960938 5.914063 2.960938 9.273438zm0 0"/><path d="m188.113281 202.28125 5.933594 14.855469c3.320313-1.328125 7.082031-1.488281 10.457031-.496094l4.519532-15.34375c-6.800782-2-14.269532-1.664063-20.910157.984375zm0 0"/><path d="m448 176h16v16h-16zm0 0"/><path d="m448 208h16v16h-16zm0 0"/><path d="m448 240h16v96h-16zm0 0"/></svg>